<svg xmlns="http://www.w3.org/2000/svg" width="1200" height="420" viewBox="0 0 1200 420" role="img" aria-label="TrendR hero">
  <defs>
    <linearGradient id="g1" x1="0" y1="0" x2="1" y2="1">
      <stop offset="0%" stop-color="#0f766e"/>
      <stop offset="100%" stop-color="#1d4ed8"/>
    </linearGradient>
  </defs>
  <rect width="1200" height="420" fill="url(#g1)" rx="24"/>
  <g opacity="0.22" stroke="#ffffff" stroke-width="2" fill="none">
    <path d="M90 300 C 210 240, 260 260, 360 210 C 430 174, 500 186, 610 138 C 740 82, 820 126, 980 72"/>
    <path d="M90 340 C 220 295, 290 312, 410 250 C 500 205, 620 220, 760 162 C 885 111, 990 132, 1100 96"/>
  </g>
  <g fill="#ffffff" opacity="0.9">
    <circle cx="360" cy="210" r="7"/>
    <circle cx="610" cy="138" r="7"/>
    <circle cx="760" cy="162" r="7"/>
    <circle cx="980" cy="72" r="7"/>
  </g>
  <text x="84" y="168" fill="#ffffff" font-family="Inter, Segoe UI, Arial, sans-serif" font-size="64" font-weight="700">TrendR</text>
  <text x="84" y="214" fill="#dbeafe" font-family="Inter, Segoe UI, Arial, sans-serif" font-size="24">AI Trend Tracking and Research Intelligence</text>
  <text x="84" y="352" fill="#bfdbfe" font-family="JetBrains Mono, Menlo, monospace" font-size="20">Python   PyTorch   PPO   Agent Workflow</text>
</svg>
